<svg width="80" height="80" viewBox="0 0 80 80" fill="none" xmlns="http://www.w3.org/2000/svg">
<path d="M30.3273 34.1699L12 26.715V51.8229L30.3273 59.4246L48.9091 51.8229L68 59.4246V34.1699L48.9091 26.715L30.3273 34.1699Z" fill="#CBCDDD"/>
<path d="M42.8528 27.4424C42.8528 31.5526 35.8528 44.2839 35.8528 43.9952C35.8528 43.7065 28.8528 31.5526 28.8528 27.4424C28.8528 23.3321 31.9868 20 35.8528 20C39.7188 20 42.8528 23.3321 42.8528 27.4424Z" fill="#3A447C"/>
<path d="M39.8528 27C39.8528 29.2091 38.0619 31 35.8528 31C33.6436 31 31.8528 29.2091 31.8528 27C31.8528 24.7909 33.6436 23 35.8528 23C38.0619 23 39.8528 24.7909 39.8528 27Z" fill="#F3F4F8"/>
</svg>
