<svg width="58" height="48" viewBox="0 0 58 48" fill="none" xmlns="http://www.w3.org/2000/svg">
<path d="M18.9295 16.9256L0.147217 7.97607V38.1175L18.9295 47.2432L37.9727 38.1175L57.5376 47.2432V16.9256L37.9727 7.97607L18.9295 16.9256Z" fill="#CBCDDD"/>
<path d="M34.4352 9.26215C34.4352 14.1429 25.5977 29.2607 25.5977 28.9179C25.5977 28.5751 16.7603 14.1429 16.7603 9.26215C16.7603 4.38135 20.7169 0.424683 25.5977 0.424683C30.4785 0.424683 34.4352 4.38135 34.4352 9.26215Z" fill="#3A447C"/>
<path d="M30.6167 9.19591C30.6167 12.0356 28.3147 14.3376 25.475 14.3376C22.6353 14.3376 20.3333 12.0356 20.3333 9.19591C20.3333 6.35622 22.6353 4.0542 25.475 4.0542C28.3147 4.0542 30.6167 6.35622 30.6167 9.19591Z" fill="#F3F4F8"/>
</svg>
