<svg width="38" height="32" viewBox="0 0 38 32" fill="none" xmlns="http://www.w3.org/2000/svg">
<path d="M12.4364 10.9257L0 5V24.9576L12.4364 31L25.0455 24.9576L38 31V10.9257L25.0455 5L12.4364 10.9257Z" fill="#CBCDDD"/>
<path d="M12.75 32V11" stroke="#F3F4F8"/>
<path d="M24.75 26V5" stroke="#F3F4F8"/>
<path d="M22.7031 5.85156C22.7031 9.08329 16.8516 19.0932 16.8516 18.8662C16.8516 18.6392 11 9.08329 11 5.85156C11 2.61983 13.6198 0 16.8516 0C20.0833 0 22.7031 2.61983 22.7031 5.85156Z" fill="#3A447C"/>
<path d="M20.1747 5.80769C20.1747 7.68793 18.6505 9.21218 16.7702 9.21218C14.89 9.21218 13.3657 7.68793 13.3657 5.80769C13.3657 3.92744 14.89 2.4032 16.7702 2.4032C18.6505 2.4032 20.1747 3.92744 20.1747 5.80769Z" fill="#F3F4F8"/>
</svg>
