<svg width="44" height="28" viewBox="0 0 44 28" fill="none" xmlns="http://www.w3.org/2000/svg">
<path d="M42.2968 26.9999H1V4.56319L9.25937 9.98538L17.5187 0.82373L25.7781 4.56319L34.0375 0.82373L42.2968 2.82615V26.9999Z" fill="#CBCDDD"/>
<path d="M42.7969 27.4996H0.5V12.0905L1.16211 12.317L9.10547 15.0358L17.1445 5.9469L17.457 5.59241L17.8281 5.88538L25.8291 12.193L33.7988 7.85315L33.9414 7.776L34.1025 7.79651L42.3613 8.87756L42.7969 8.9342V27.4996Z" fill="#848AAE" stroke="#F3F4F8"/>
<path d="M42.7969 27.4999H0.5V20.9344L0.955078 20.8925L9.12305 20.1532L17.3057 16.2948L17.4922 16.2059L17.6875 16.2762L25.6904 19.1444L33.7344 13.0048L34.0195 12.787L34.3164 12.9872L42.5762 18.5458L42.7969 18.6942V27.4999Z" fill="#3A447C" stroke="#F3F4F8"/>
</svg>
