<svg width="44" height="28" viewBox="0 0 44 28" fill="none" xmlns="http://www.w3.org/2000/svg">
<path d="M42.9232 27H1.95361V0.0200195H10.1475H18.3414H26.5354H34.7293H42.9232V27Z" fill="#CBCDDD"/>
<path d="M43.4233 27.5004H1.45361V7.33533L2.0376 7.43494L10.147 8.8158L18.2573 7.43494L18.3413 7.42029L18.4253 7.43494L26.5073 8.81091L34.5923 6.51599L34.769 6.46619L34.936 6.54236L43.1304 10.264L43.4233 10.3969V27.5004Z" fill="#848AAE" stroke="#F3F4F8"/>
<path d="M43.4233 27.5H1.45361V18.1768L1.90088 18.1299L10.0317 17.2734L18.1606 14.1123L18.3726 14.0293L18.5747 14.1357L26.0347 18.0615L34.4966 13.6016L34.6851 13.502L34.8872 13.5693L43.0806 16.292L43.4233 16.4053V27.5Z" fill="#3A447C" stroke="#F3F4F8"/>
</svg>
