<svg width="33" height="28" viewBox="0 0 33 28" fill="none" xmlns="http://www.w3.org/2000/svg">
<rect x="33" width="6" height="10" transform="rotate(90 33 0)" fill="#3A447C"/>
<rect x="10" width="6" height="10" transform="rotate(90 10 0)" fill="#3A447C"/>
<rect width="6.00001" height="11" transform="matrix(2.20498e-09 1 1 -8.66533e-07 11 0)" fill="#3A447C"/>
<rect x="33" y="7" width="7" height="10" transform="rotate(90 33 7)" fill="#CBCDDD"/>
<rect x="10" y="7" width="7" height="10" transform="rotate(90 10 7)" fill="#CBCDDD"/>
<rect width="7.00001" height="11" transform="matrix(2.35704e-09 1 1 -8.10628e-07 11 7)" fill="#CBCDDD"/>
<rect x="33" y="15" width="6" height="10" transform="rotate(90 33 15)" fill="#CBCDDD"/>
<rect x="10" y="15" width="6" height="10" transform="rotate(90 10 15)" fill="#CBCDDD"/>
<rect width="6.00001" height="11" transform="matrix(2.35704e-09 1 1 -8.10628e-07 11 15)" fill="#CBCDDD"/>
<rect x="33" y="22" width="6" height="10" transform="rotate(90 33 22)" fill="#CBCDDD"/>
<rect x="10" y="22" width="6" height="10" transform="rotate(90 10 22)" fill="#CBCDDD"/>
<rect width="6.00001" height="11" transform="matrix(2.35704e-09 1 1 -8.10628e-07 11 22)" fill="#CBCDDD"/>
</svg>
