<svg width="52" height="42" viewBox="0 0 52 42" fill="none" xmlns="http://www.w3.org/2000/svg">
<rect x="52" width="9" height="16" transform="rotate(90 52 0)" fill="#3A447C"/>
<rect x="16" width="9" height="16" transform="rotate(90 16 0)" fill="#3A447C"/>
<rect width="9.00001" height="16" transform="matrix(2.20498e-09 1 1 -8.66533e-07 18 0)" fill="#3A447C"/>
<rect x="52" y="11" width="9" height="16" transform="rotate(90 52 11)" fill="#CBCDDD"/>
<rect x="16" y="11" width="9" height="16" transform="rotate(90 16 11)" fill="#CBCDDD"/>
<rect width="9.00001" height="16" transform="matrix(2.35704e-09 1 1 -8.10628e-07 18 11)" fill="#CBCDDD"/>
<rect x="52" y="22" width="9" height="16" transform="rotate(90 52 22)" fill="#CBCDDD"/>
<rect x="16" y="22" width="9" height="16" transform="rotate(90 16 22)" fill="#CBCDDD"/>
<rect width="9.00001" height="16" transform="matrix(2.35704e-09 1 1 -8.10628e-07 18 22)" fill="#CBCDDD"/>
<rect x="52" y="33" width="9" height="16" transform="rotate(90 52 33)" fill="#CBCDDD"/>
<rect x="16" y="33" width="9" height="16" transform="rotate(90 16 33)" fill="#CBCDDD"/>
<rect width="9.00001" height="16" transform="matrix(2.35704e-09 1 1 -8.10628e-07 18 33)" fill="#CBCDDD"/>
</svg>
